<?xml version="1.0" encoding="utf-8"?>
<!-- Generator: Adobe Illustrator 24.1.1, SVG Export Plug-In . SVG Version: 6.00 Build 0)  -->
<svg version="1.1" id="Capa_1" xmlns="http://www.w3.org/2000/svg" xmlns:xlink="http://www.w3.org/1999/xlink" x="0px" y="0px"
	 viewBox="0 0 97.8 97.8" style="enable-background:new 0 0 97.8 97.8;" xml:space="preserve">
<style type="text/css">
	.st0{fill:#FFFFFF;}
</style>
<g>
	<g>
		<path class="st0" d="M46.9,46.8c0-0.9-0.6-0.9-0.6-0.9h-0.3h-2.3v2h2.5C46.5,47.9,46.9,47.7,46.9,46.8z"/>
		<path class="st0" d="M46.3,49.3h-2.6v2.4h2.5c0.4,0,1.1-0.1,1.1-1.2C47.2,49.3,46.3,49.3,46.3,49.3z"/>
		<path class="st0" d="M53,47.9c-1.4,0-1.6,1.4-1.6,1.4h3C54.4,49.3,54.4,47.9,53,47.9z"/>
		<path class="st0" d="M48.9,38.9c-5.5,0-10,4.5-10,10s4.5,10,10,10s10-4.5,10-10S54.4,38.9,48.9,38.9z M51.1,44.8h3.7v1.1h-3.7
			V44.8z M49.2,50.6c0,2.8-2.9,2.7-2.9,2.7h-2.6h-0.1h-2v-9.1h2h0.1h2.6c1.4,0,2.6,0.8,2.6,2.4c0,1.6-1.4,1.7-1.4,1.7
			C49.3,48.4,49.2,50.6,49.2,50.6z M53.1,52.1c1.5,0,1.5-1,1.5-1h1.6c0,2.6-3.1,2.4-3.1,2.4c-3.7,0-3.5-3.5-3.5-3.5s0-3.5,3.5-3.5
			c3.7,0,3.2,3.9,3.2,3.9h-4.7C51.5,52.2,53.1,52.1,53.1,52.1z"/>
	</g>
</g>
</svg>
