<?xml version="1.0" encoding="utf-8"?>
<!-- Generator: Adobe Illustrator 24.1.1, SVG Export Plug-In . SVG Version: 6.00 Build 0)  -->
<svg version="1.1" id="Capa_1" xmlns="http://www.w3.org/2000/svg" xmlns:xlink="http://www.w3.org/1999/xlink" x="0px" y="0px"
	 viewBox="0 0 97.8 97.8" style="enable-background:new 0 0 97.8 97.8;" xml:space="preserve">
<style type="text/css">
	.st0{fill:#FFFFFF;}
</style>
<g>
	<g>
		<path class="st0" d="M48.9,38.9c-5.5,0-10,4.5-10,10s4.5,10,10,10s10-4.5,10-10S54.4,38.9,48.9,38.9z M55,49.3l-5,1.4l-0.2-0.4
			l-0.5-1l-1.2-2.2c0.9-0.1,1.6-0.2,2.3-0.1l1.1,1.8l2.7-0.7c-1.1-1.1-3-2-6.6-1.4c-0.1,0-0.2,0-0.2,0l1.4,2.7l0.8,1.4l-2.2,0.6
			l-2.8,0.8l-2.5,0.7L41.4,53c-0.2-0.3-0.3-0.6-0.4-0.9c-0.5-1.5-0.1-3,1-4.3c0.7-0.7,1.6-1.3,2.7-1.8L44,44.7
			c0.6-0.2,1.2-0.3,1.9-0.4l0.7,1.3c0.1,0,0.2,0,0.2,0c2.1-0.3,4.2-0.3,6.1,0.1v0c2,0.4,3.8,1.2,4.6,2.2c0.2,0.2,0.3,0.4,0.4,0.6
			l-0.5,0.1L55,49.3z"/>
		<path class="st0" d="M43.7,50.6l2.7-0.7l-1.2-2.6C43.7,48.2,43.5,49.5,43.7,50.6z"/>
	</g>
</g>
</svg>
