<?xml version="1.0" encoding="utf-8"?>
<!-- Generator: Adobe Illustrator 24.1.1, SVG Export Plug-In . SVG Version: 6.00 Build 0)  -->
<svg version="1.1" id="Capa_1" xmlns="http://www.w3.org/2000/svg" xmlns:xlink="http://www.w3.org/1999/xlink" x="0px" y="0px"
	 viewBox="0 0 97.8 97.8" style="enable-background:new 0 0 97.8 97.8;" xml:space="preserve">
<style type="text/css">
	.st0{fill:#FFFFFF;}
</style>
<g>
	<g>
		<path class="st0" d="M48.5,46.8c-1-1.8-2.1-3.3-2.3-3.6c-1.7,0.8-3,2.4-3.4,4.3c0,0,0,0,0.1,0C43.4,47.6,45.8,47.5,48.5,46.8z"/>
		<path class="st0" d="M53,44.2c-1.1-1-2.5-1.6-4.1-1.6c-0.5,0-1,0.1-1.4,0.2c0.3,0.3,1.3,1.8,2.3,3.6C51.9,45.6,52.8,44.4,53,44.2z
			"/>
		<path class="st0" d="M50.7,48.3c0,0.1,0.1,0.2,0.1,0.3c0.5-0.1,1-0.1,1.4-0.1c1.4,0,2.6,0.2,2.9,0.3c0-1.4-0.5-2.8-1.4-3.8
			c-0.2,0.3-1.3,1.5-3.5,2.4C50.4,47.7,50.6,48,50.7,48.3z"/>
		<path class="st0" d="M49.3,48.9c0.1,0,0.1,0,0.2-0.1c-0.1-0.3-0.3-0.7-0.5-1c-2.8,0.8-5.5,0.9-6.2,0.9c-0.1,0-0.1,0-0.2,0
			c0,0.1,0,0.1,0,0.2c0,1.6,0.6,3,1.6,4.1C44.5,52.6,46.2,49.9,49.3,48.9z"/>
		<path class="st0" d="M48.9,38.9c-5.5,0-10,4.5-10,10s4.5,10,10,10s10-4.5,10-10S54.4,38.9,48.9,38.9z M48.9,56.3
			c-4.1,0-7.4-3.3-7.4-7.4c0-4.1,3.3-7.4,7.4-7.4c4.1,0,7.4,3.3,7.4,7.4C56.3,53,53,56.3,48.9,56.3z"/>
		<path class="st0" d="M51.2,49.6c0.8,2.1,1.1,3.9,1.2,4.4c1.4-0.9,2.3-2.4,2.6-4.1c-0.2-0.1-1.3-0.4-2.6-0.4
			C52.1,49.5,51.7,49.6,51.2,49.6z"/>
		<path class="st0" d="M50,50c-3.4,1.2-4.7,3.5-4.9,3.9c1.1,0.8,2.4,1.3,3.8,1.3c0.9,0,1.7-0.2,2.4-0.5C51.2,54.1,50.8,52.2,50,50
			C50,50,50,50,50,50z"/>
	</g>
</g>
</svg>
