<?xml version="1.0" encoding="utf-8"?>
<!-- Generator: Adobe Illustrator 24.1.1, SVG Export Plug-In . SVG Version: 6.00 Build 0)  -->
<svg version="1.1" id="Capa_1" xmlns="http://www.w3.org/2000/svg" xmlns:xlink="http://www.w3.org/1999/xlink" x="0px" y="0px"
	 viewBox="0 0 97.8 97.8" style="enable-background:new 0 0 97.8 97.8;" xml:space="preserve">
<style type="text/css">
	.st0{fill:#FFFFFF;}
</style>
<g>
	<path class="st0" d="M48.9,38.9c-5.5,0-10,4.5-10,10s4.5,10,10,10s10-4.5,10-10S54.4,38.9,48.9,38.9z M45.1,55.6h-2.8v-9h2.8V55.6z
		 M43.7,45.4c-0.9,0-1.6-0.7-1.6-1.6c0-0.9,0.7-1.6,1.6-1.6c0.9,0,1.6,0.7,1.6,1.6C45.4,44.6,44.6,45.4,43.7,45.4z M55.7,55.6h-2.8
		v-4.4c0-1,0-2.4-1.5-2.4c-1.5,0-1.7,1.1-1.7,2.3v4.5h-2.8v-9h2.7v1.2h0c0.4-0.7,1.3-1.5,2.7-1.5c2.8,0,3.4,1.9,3.4,4.3
		C55.7,50.7,55.7,55.6,55.7,55.6z"/>
</g>
</svg>
