<?xml version="1.0" encoding="utf-8"?>
<!-- Generator: Adobe Illustrator 24.1.1, SVG Export Plug-In . SVG Version: 6.00 Build 0)  -->
<svg version="1.1" id="Layer_1" xmlns="http://www.w3.org/2000/svg" xmlns:xlink="http://www.w3.org/1999/xlink" x="0px" y="0px"
	 viewBox="0 0 151 46" style="enable-background:new 0 0 151 46;" xml:space="preserve">
<style type="text/css">
	.st0{fill:#FCFCFC;stroke:#063FB3;stroke-width:0.5;}
	.st1{fill:#063FB3;}
	.st2{font-family:'JavaneseText';}
	.st3{font-size:5.3333px;}
</style>
<g id="Group_2" transform="translate(254.5 -554.5)">
	<g id="Layer_2_1_" transform="translate(-254.5 554.5)">
		<path id="Path_9" class="st0" d="M47.5,13h56c2.9,0,5.3,2.4,5.3,5.3v9.3c0,2.9-2.4,5.3-5.3,5.3h-56c-2.9,0-5.3-2.4-5.3-5.3v-9.3
			C42.2,15.4,44.6,13,47.5,13z"/>
		<text transform="matrix(1 0 0 1 59.4287 24.9463)" class="st1 st2 st3">Resume</text>
		<path id="Path_8" class="st1" d="M91.5,24.6c-0.4-0.8-2.2-0.8-3.1-0.8c-0.6-0.6-1.1-1.2-1.6-1.8c0.5-1.4,0.6-2.4,0.4-2.8
			c-0.2-0.4-0.7-0.7-1.1-0.5c-0.6,0.2-1,1.1-0.5,2.4c0.1,0.4,0.3,0.7,0.5,1c-0.3,0.8-0.6,1.6-1,2.3c-0.9,0.3-2,0.8-2.5,1.6
			c-0.2,0.3-0.2,0.7-0.1,1c0.3,0.6,0.9,0.7,1.6,0c0.3-0.3,0.6-0.7,0.9-1c0.2-0.3,0.5-0.7,0.6-1.1c0.9-0.2,1.8-0.4,2.7-0.4
			c0.5,0.4,0.9,0.8,0.9,0.8c0.4,0.4,1,0.6,1.6,0.6c0.3,0,0.6-0.2,0.8-0.4C91.6,25.2,91.6,24.9,91.5,24.6z M84.2,25.5
			c-0.8,1.1-1.1,1.2-1.2,1.2c0,0,0,0-0.1-0.1c-0.1-0.1-0.1-0.3,0-0.4c0.4-0.5,0.9-0.8,1.4-1C84.3,25.4,84.2,25.5,84.2,25.5z
			 M86.3,19.2L86.3,19.2c0,0,0.1,0.1,0.2,0.2c0.1,0.1,0.1,0.6-0.2,1.7c-0.1-0.1-0.1-0.2-0.1-0.3C85.8,19.9,86.1,19.3,86.3,19.2z
			 M85.8,24.1c0.2-0.4,0.4-0.9,0.6-1.4c0.3,0.4,0.7,0.8,1,1.1C86.9,23.9,86.4,24,85.8,24.1L85.8,24.1z M90.8,25
			c-0.1,0.1-0.2,0.2-0.3,0.2c-0.4,0-0.7-0.2-1-0.4l0,0l-0.4-0.3l0,0c1.1,0.1,1.6,0.3,1.7,0.4C90.9,24.9,90.8,25,90.8,25z"/>
	</g>
</g>
</svg>
