<?xml version="1.0" encoding="utf-8"?>
<!-- Generator: Adobe Illustrator 24.1.1, SVG Export Plug-In . SVG Version: 6.00 Build 0)  -->
<svg version="1.1" id="Capa_1" xmlns="http://www.w3.org/2000/svg" xmlns:xlink="http://www.w3.org/1999/xlink" x="0px" y="0px"
	 viewBox="0 0 97.8 97.8" style="enable-background:new 0 0 97.8 97.8;" xml:space="preserve">
<style type="text/css">
	.st0{fill:#FFFFFF;}
</style>
<g>
	<path class="st0" d="M49.1,39.6c-5.5,0-10,4.5-10,10s4.5,10,10,10s10-4.5,10-10S54.6,39.6,49.1,39.6z M55.2,46.9c0,0.1,0,0.2,0,0.4
		c0,4.3-3.3,8.7-8.7,8.7c-1.7,0-3.3-0.5-4.7-1.4c0,0,0-0.1,0-0.1c0,0,0-0.1,0.1,0c0.2,0,0.5,0,0.7,0c1.3,0,2.5-0.4,3.6-1.2
		c-1.2-0.1-2.3-0.9-2.7-2.1c0,0,0-0.1,0-0.1c0,0,0,0,0.1,0c0.3,0.1,0.7,0.1,1,0c-1.3-0.4-2.2-1.6-2.2-3l0,0c0,0,0,0,0-0.1
		c0,0,0.1,0,0.1,0c0.3,0.2,0.7,0.3,1.1,0.4c-0.7-0.6-1.2-1.5-1.2-2.4c0-0.5,0.1-1.1,0.4-1.6c0,0,0,0,0.1,0c0,0,0,0,0.1,0
		c1.5,1.8,3.7,3,6.1,3.1c0-0.2-0.1-0.4-0.1-0.6c0-1.7,1.4-3.1,3.1-3.1c0.8,0,1.7,0.3,2.2,0.9c0.7-0.1,1.3-0.4,1.9-0.7
		c0,0,0.1,0,0.1,0c0,0,0,0.1,0,0.1c-0.2,0.6-0.6,1.1-1.1,1.5c0.5-0.1,1-0.2,1.4-0.4c0,0,0.1,0,0.1,0c0,0,0,0.1,0,0.1
		C56.2,45.9,55.7,46.5,55.2,46.9z"/>
</g>
</svg>
