<?xml version="1.0" encoding="utf-8"?>
<!-- Generator: Adobe Illustrator 24.1.1, SVG Export Plug-In . SVG Version: 6.00 Build 0)  -->
<svg version="1.1" id="Capa_1" xmlns="http://www.w3.org/2000/svg" xmlns:xlink="http://www.w3.org/1999/xlink" x="0px" y="0px"
	 viewBox="0 0 97.8 97.8" style="enable-background:new 0 0 97.8 97.8;" xml:space="preserve">
<style type="text/css">
	.st0{fill:#FFFFFF;}
</style>
<g>
	<g>
		<path class="st0" d="M53.1,48.6c0-0.8-0.3-1.3-0.5-1.7c-0.3-0.5-0.6-1-0.6-1.5c0-0.6,0.4-1.1,1.1-1.1c0,0,0.1,0,0.1,0
			c-1.1-1-2.6-1.7-4.3-1.7c-2.2,0-4.1,1.1-5.3,2.8c0.1,0,0.3,0,0.4,0c0.7,0,1.7-0.1,1.7-0.1c0.3,0,0.4,0.5,0,0.5c0,0-0.3,0-0.7,0.1
			l2.3,6.8l1.4-4.1l-1-2.7c-0.3,0-0.7-0.1-0.7-0.1c-0.3,0-0.3-0.5,0-0.5c0,0,1,0.1,1.7,0.1c0.7,0,1.7-0.1,1.7-0.1
			c0.3,0,0.4,0.5,0,0.5c0,0-0.3,0-0.7,0.1l2.3,6.8l0.6-2.1C52.9,49.7,53.1,49.1,53.1,48.6z"/>
		<path class="st0" d="M42.6,48.9c0,2.5,1.5,4.7,3.6,5.7l-3-8.2C42.8,47.1,42.6,48,42.6,48.9z"/>
		<path class="st0" d="M49,49.4l-1.9,5.5c0.6,0.2,1.2,0.3,1.8,0.3c0.7,0,1.4-0.1,2.1-0.4c0,0,0-0.1,0-0.1L49,49.4z"/>
		<path class="st0" d="M52,54.3c1.9-1.1,3.1-3.1,3.1-5.5c0-1.1-0.3-2.1-0.8-3c0,0.2,0,0.4,0,0.6c0,0.6-0.1,1.4-0.5,2.3L52,54.3z"/>
		<path class="st0" d="M48.9,38.9c-5.5,0-10,4.5-10,10s4.5,10,10,10s10-4.5,10-10S54.4,38.9,48.9,38.9z M48.9,55.9c-3.9,0-7-3.1-7-7
			c0-3.9,3.1-7,7-7c3.9,0,7,3.1,7,7C55.9,52.7,52.7,55.9,48.9,55.9z"/>
	</g>
</g>
</svg>
